<?xml version="1.0" encoding="UTF-8" standalone="no"?>
<!-- Created with Inkscape (http://www.inkscape.org/) -->

<svg
   width="69.973mm"
   height="69.973mm"
   viewBox="-1 -1 69.973279 69.973279"
   version="1.1"
   id="svg1"
   xml:space="preserve"
   inkscape:version="1.3 (1:1.3+202307231459+0e150ed6c4)"
   sodipodi:docname="ros_extension.svg"
   xmlns:inkscape="http://www.inkscape.org/namespaces/inkscape"
   xmlns:sodipodi="http://sodipodi.sourceforge.net/DTD/sodipodi-0.dtd"
   xmlns="http://www.w3.org/2000/svg"
   xmlns:svg="http://www.w3.org/2000/svg"><sodipodi:namedview
     id="namedview1"
     pagecolor="#ffffff"
     bordercolor="#666666"
     borderopacity="1.0"
     inkscape:showpageshadow="2"
     inkscape:pageopacity="0.0"
     inkscape:pagecheckerboard="0"
     inkscape:deskcolor="#d1d1d1"
     inkscape:document-units="mm"
     inkscape:zoom="1.4549257"
     inkscape:cx="61.515171"
     inkscape:cy="143.30629"
     inkscape:window-width="1920"
     inkscape:window-height="1011"
     inkscape:window-x="1728"
     inkscape:window-y="0"
     inkscape:window-maximized="1"
     inkscape:current-layer="layer1" /><defs
     id="defs1" /><g
     inkscape:label="Layer 1"
     inkscape:groupmode="layer"
     id="layer1"
     transform="translate(-6.3834953,-21.103386)"><g
       id="g1"
       transform="matrix(1.0345805,0,0,1.0345805,-88.733139,-4.1974635)"
       style="stroke-width:0.966575"><path
         style="fill:#f4f4f4;fill-opacity:1;stroke-width:0.256143;stroke-linejoin:round"
         id="path1"
         sodipodi:type="arc"
         sodipodi:cx="124.82944"
         sodipodi:cy="57.336113"
         sodipodi:rx="32.881512"
         sodipodi:ry="32.881512"
         sodipodi:start="3.1141842"
         sodipodi:end="3.1127305"
         sodipodi:open="true"
         sodipodi:arc-type="arc"
         d="M 91.960275,58.237232 A 32.881512,32.881512 0 0 1 123.91637,24.467281 32.881512,32.881512 0 0 1 157.69794,56.411104 32.881512,32.881512 0 0 1 125.76639,90.204273 32.881512,32.881512 0 0 1 91.96162,58.285012" /><path
         style="fill:#21314e;fill-opacity:1;stroke-width:0.256143;stroke-linejoin:round"
         id="path1-5"
         sodipodi:type="arc"
         sodipodi:cx="108.83864"
         sodipodi:cy="40.630756"
         sodipodi:rx="4.8095407"
         sodipodi:ry="4.8095407"
         sodipodi:start="3.1141842"
         sodipodi:end="3.1127305"
         sodipodi:open="true"
         sodipodi:arc-type="arc"
         d="m 104.0309,40.762562 a 4.8095407,4.8095407 0 0 1 4.67419,-4.939492 4.8095407,4.8095407 0 0 1 4.94119,4.672386 4.8095407,4.8095407 0 0 1 -4.67059,4.942888 4.8095407,4.8095407 0 0 1 -4.94459,-4.668793" /><path
         style="fill:#21314e;fill-opacity:1;stroke-width:0.256143;stroke-linejoin:round"
         id="path1-5-8"
         sodipodi:type="arc"
         sodipodi:cx="124.94875"
         sodipodi:cy="40.630756"
         sodipodi:rx="4.8095407"
         sodipodi:ry="4.8095407"
         sodipodi:start="3.1141842"
         sodipodi:end="3.1127305"
         sodipodi:open="true"
         sodipodi:arc-type="arc"
         d="m 120.14102,40.762562 a 4.8095407,4.8095407 0 0 1 4.67418,-4.939492 4.8095407,4.8095407 0 0 1 4.94119,4.672386 4.8095407,4.8095407 0 0 1 -4.67059,4.942888 4.8095407,4.8095407 0 0 1 -4.94458,-4.668793" /><path
         style="fill:#21314e;fill-opacity:1;stroke-width:0.256143;stroke-linejoin:round"
         id="path1-5-6"
         sodipodi:type="arc"
         sodipodi:cx="141.13716"
         sodipodi:cy="40.630756"
         sodipodi:rx="4.8095407"
         sodipodi:ry="4.8095407"
         sodipodi:start="3.1141842"
         sodipodi:end="3.1127305"
         sodipodi:open="true"
         sodipodi:arc-type="arc"
         d="m 136.32943,40.762562 a 4.8095407,4.8095407 0 0 1 4.67418,-4.939492 4.8095407,4.8095407 0 0 1 4.94119,4.672386 4.8095407,4.8095407 0 0 1 -4.67059,4.942888 4.8095407,4.8095407 0 0 1 -4.94459,-4.668793" /><path
         style="fill:#21314e;fill-opacity:1;stroke-width:0.256143;stroke-linejoin:round"
         id="path1-5-3"
         sodipodi:type="arc"
         sodipodi:cx="108.83864"
         sodipodi:cy="56.819202"
         sodipodi:rx="4.8095407"
         sodipodi:ry="4.8095407"
         sodipodi:start="3.1141842"
         sodipodi:end="3.1127305"
         sodipodi:open="true"
         sodipodi:arc-type="arc"
         d="m 104.0309,56.951008 a 4.8095407,4.8095407 0 0 1 4.67419,-4.939492 4.8095407,4.8095407 0 0 1 4.94119,4.672386 4.8095407,4.8095407 0 0 1 -4.67059,4.942888 4.8095407,4.8095407 0 0 1 -4.94459,-4.668793" /><path
         style="fill:#21314e;fill-opacity:1;stroke-width:0.256143;stroke-linejoin:round"
         id="path1-5-8-1"
         sodipodi:type="arc"
         sodipodi:cx="124.94875"
         sodipodi:cy="56.819202"
         sodipodi:rx="4.8095407"
         sodipodi:ry="4.8095407"
         sodipodi:start="3.1141842"
         sodipodi:end="3.1127305"
         sodipodi:open="true"
         sodipodi:arc-type="arc"
         d="m 120.14102,56.951008 a 4.8095407,4.8095407 0 0 1 4.67418,-4.939492 4.8095407,4.8095407 0 0 1 4.94119,4.672386 4.8095407,4.8095407 0 0 1 -4.67059,4.942888 4.8095407,4.8095407 0 0 1 -4.94458,-4.668793" /><path
         style="fill:#21314e;fill-opacity:1;stroke-width:0.256143;stroke-linejoin:round"
         id="path1-5-6-9"
         sodipodi:type="arc"
         sodipodi:cx="141.13716"
         sodipodi:cy="56.819202"
         sodipodi:rx="4.8095407"
         sodipodi:ry="4.8095407"
         sodipodi:start="3.1141842"
         sodipodi:end="3.1127305"
         sodipodi:open="true"
         sodipodi:arc-type="arc"
         d="m 136.32943,56.951008 a 4.8095407,4.8095407 0 0 1 4.67418,-4.939492 4.8095407,4.8095407 0 0 1 4.94119,4.672386 4.8095407,4.8095407 0 0 1 -4.67059,4.942888 4.8095407,4.8095407 0 0 1 -4.94459,-4.668793" /><path
         style="fill:#21314e;fill-opacity:1;stroke-width:0.256143;stroke-linejoin:round"
         id="path1-5-4"
         sodipodi:type="arc"
         sodipodi:cx="108.83864"
         sodipodi:cy="73.164345"
         sodipodi:rx="4.8095407"
         sodipodi:ry="4.8095407"
         sodipodi:start="3.1141842"
         sodipodi:end="3.1127305"
         sodipodi:open="true"
         sodipodi:arc-type="arc"
         d="m 104.0309,73.29615 a 4.8095407,4.8095407 0 0 1 4.67419,-4.939491 4.8095407,4.8095407 0 0 1 4.94119,4.672386 4.8095407,4.8095407 0 0 1 -4.67059,4.942888 4.8095407,4.8095407 0 0 1 -4.94459,-4.668794" /><path
         style="fill:#21314e;fill-opacity:1;stroke-width:0.256143;stroke-linejoin:round"
         id="path1-5-8-5"
         sodipodi:type="arc"
         sodipodi:cx="124.94875"
         sodipodi:cy="73.164345"
         sodipodi:rx="4.8095407"
         sodipodi:ry="4.8095407"
         sodipodi:start="3.1141842"
         sodipodi:end="3.1127305"
         sodipodi:open="true"
         sodipodi:arc-type="arc"
         d="m 120.14102,73.29615 a 4.8095407,4.8095407 0 0 1 4.67418,-4.939491 4.8095407,4.8095407 0 0 1 4.94119,4.672386 4.8095407,4.8095407 0 0 1 -4.67059,4.942888 4.8095407,4.8095407 0 0 1 -4.94458,-4.668794" /><path
         style="fill:#21314e;fill-opacity:1;stroke-width:0.256143;stroke-linejoin:round"
         id="path1-5-6-0"
         sodipodi:type="arc"
         sodipodi:cx="141.13716"
         sodipodi:cy="73.164345"
         sodipodi:rx="4.8095407"
         sodipodi:ry="4.8095407"
         sodipodi:start="3.1141842"
         sodipodi:end="3.1127305"
         sodipodi:open="true"
         sodipodi:arc-type="arc"
         d="m 136.32943,73.29615 a 4.8095407,4.8095407 0 0 1 4.67418,-4.939491 4.8095407,4.8095407 0 0 1 4.94119,4.672386 4.8095407,4.8095407 0 0 1 -4.67059,4.942888 4.8095407,4.8095407 0 0 1 -4.94459,-4.668794" /></g></g></svg>
