<?xml version="1.0" encoding="UTF-8" standalone="no"?>
<!-- Created with Inkscape (http://www.inkscape.org/) -->

<svg
   width="69.973mm"
   height="69.973mm"
   viewBox="-1 -1 69.973279 69.973279"
   version="1.1"
   id="svg1"
   xml:space="preserve"
   inkscape:version="1.3 (1:1.3+202307231459+0e150ed6c4)"
   sodipodi:docname="cpp_extension.svg"
   xmlns:inkscape="http://www.inkscape.org/namespaces/inkscape"
   xmlns:sodipodi="http://sodipodi.sourceforge.net/DTD/sodipodi-0.dtd"
   xmlns="http://www.w3.org/2000/svg"
   xmlns:svg="http://www.w3.org/2000/svg"><sodipodi:namedview
     id="namedview1"
     pagecolor="#ffffff"
     bordercolor="#666666"
     borderopacity="1.0"
     inkscape:showpageshadow="2"
     inkscape:pageopacity="0.0"
     inkscape:pagecheckerboard="0"
     inkscape:deskcolor="#d1d1d1"
     inkscape:document-units="mm"
     inkscape:zoom="0.84429117"
     inkscape:cx="248.72936"
     inkscape:cy="278.93221"
     inkscape:window-width="1728"
     inkscape:window-height="1011"
     inkscape:window-x="0"
     inkscape:window-y="0"
     inkscape:window-maximized="1"
     inkscape:current-layer="layer1" /><defs
     id="defs1" /><g
     inkscape:label="Layer 1"
     inkscape:groupmode="layer"
     id="layer1"
     transform="translate(-6.3834953,-21.103386)"><g
       id="g75416"><path
         style="fill:#000000;fill-opacity:1;stroke-width:0.264999;stroke-linejoin:round"
         id="path75410"
         sodipodi:type="arc"
         sodipodi:cx="40.369854"
         sodipodi:cy="55.089745"
         sodipodi:rx="33.986359"
         sodipodi:ry="33.986359"
         sodipodi:start="3.1141842"
         sodipodi:end="3.1127305"
         sodipodi:open="true"
         sodipodi:arc-type="arc"
         d="M 6.3962602,56.021141 A 33.986359,33.986359 0 0 1 39.42611,21.116492 33.986359,33.986359 0 0 1 74.342762,54.133654 33.986359,33.986359 0 0 1 41.338291,89.062303 33.986359,33.986359 0 0 1 6.3976501,56.070528" /><path
         style="fill:#b146c2;fill-opacity:1;stroke-width:0.264999;stroke-linejoin:round"
         d="m 16.257648,72.025454 a 29.480722,29.480722 0 0 0 24.95248,12.547038 29.480722,29.480722 0 0 0 23.29884,-12.547038 z"
         id="path75412" /><path
         style="fill:#ffffff;fill-opacity:1;stroke-width:0.264999;stroke-linejoin:round"
         d="m 13.809218,42.458267 a 29.480722,29.480722 0 0 0 -2.90887,13.453442 l 0.001,0.04237 a 29.480722,29.480722 0 0 0 2.83914,11.730038 h 53.2815 a 29.480722,29.480722 0 0 0 2.81688,-13.410034 29.480722,29.480722 0 0 0 -2.86494,-11.815816 z"
         id="path75411" /><path
         style="fill:#b146c2;fill-opacity:1;stroke-width:0.264999;stroke-linejoin:round"
         d="M 39.551318,25.633971 A 29.480722,29.480722 0 0 0 16.366678,38.11693 h 48.06219 A 29.480722,29.480722 0 0 0 39.551318,25.633971 Z"
         id="path75410-3" /><path
         id="path75415-3-2"
         style="font-weight:bold;font-size:15.6254px;line-height:1.25;font-family:'DejaVu Sans';-inkscape-font-specification:'DejaVu Sans, Bold';fill:#1a1a1a;stroke-width:0.264582"
         d="m 48.186732,52.393177 c 0,0.8635 0,1.726999 0,2.5905 -1.007023,0 -2.014046,0 -3.021069,0 0,0.781403 0,1.562806 0,2.344208 1.007023,0 2.014046,0 3.021069,0 0,1.023561 0,2.047121 0,3.070682 0.77904,0 1.55808,0 2.337121,0 0,-1.023561 0,-2.047121 0,-3.070682 1.007023,0 2.014046,0 3.021069,0 0,-0.781402 0,-1.562806 0,-2.344208 -1.007023,0 -2.014046,0 -3.021069,0 0,-1.023561 0,-2.047122 0,-3.070682 -0.779041,0 -1.558081,0 -2.337121,0 0,0.16006 0,0.32012 0,0.480182 z" /><path
         id="path75415-3-2-1"
         style="font-weight:bold;font-size:15.6254px;line-height:1.25;font-family:'DejaVu Sans';-inkscape-font-specification:'DejaVu Sans, Bold';fill:#1a1a1a;stroke-width:0.264582"
         d="m 59.828406,52.393177 c 0,0.8635 0,1.726999 0,2.5905 -1.007023,0 -2.014046,0 -3.021069,0 0,0.781403 0,1.562806 0,2.344208 1.007023,0 2.014046,0 3.021069,0 0,1.023561 0,2.047121 0,3.070682 0.77904,0 1.55808,0 2.337121,0 0,-1.023561 0,-2.047121 0,-3.070682 1.007023,0 2.014046,0 3.021069,0 0,-0.781402 0,-1.562806 0,-2.344208 -1.007023,0 -2.014046,0 -3.021069,0 0,-1.023561 0,-2.047122 0,-3.070682 -0.779041,0 -1.558081,0 -2.337121,0 0,0.16006 0,0.32012 0,0.480182 z" /><path
         style="font-weight:bold;font-size:15.6254px;line-height:1.25;font-family:'DejaVu Sans';-inkscape-font-specification:'DejaVu Sans, Bold';fill:#1a1a1a;stroke-width:0.264582"
         d="m 43.486352,60.659562 q -0.777835,0.436299 -1.621706,0.658416 -0.84388,0.222116 -1.761135,0.222116 -2.737079,0 -4.336769,-1.650007 -1.59969,-1.657942 -1.59969,-4.489928 0,-2.839918 1.59969,-4.489927 1.59969,-1.657941 4.336769,-1.657941 0.917255,0 1.761135,0.222116 0.843871,0.222117 1.621706,0.658417 v 2.451216 q -0.785173,-0.57909 -1.548331,-0.848804 -0.763158,-0.269713 -1.607029,-0.269713 -1.511629,0 -2.377525,1.047121 -0.865886,1.047121 -0.865886,2.887515 0,1.832462 0.865886,2.879582 0.865896,1.047121 2.377525,1.047121 0.843871,0 1.607029,-0.269712 0.763158,-0.269713 1.548331,-0.848803 z"
         id="path75414" /><path
         style="font-weight:bold;font-size:15.6254px;line-height:1.25;font-family:'DejaVu Sans';-inkscape-font-specification:'DejaVu Sans, Bold';fill:#1a1a1a;stroke-width:0.264582"
         d="m 32.006957,49.470597 h 2.3911 l -5.67616,13.35079 h -2.38031 z"
         id="path75413" /><path
         style="font-weight:bold;font-size:15.6254px;line-height:1.25;font-family:'DejaVu Sans';-inkscape-font-specification:'DejaVu Sans, Bold';fill:#1a1a1a;stroke-width:0.264582"
         d="m 26.968441,60.659562 q -0.777834,0.436299 -1.621705,0.658416 -0.843871,0.222116 -1.761126,0.222116 -2.737089,0 -4.336778,-1.650007 -1.59969,-1.657942 -1.59969,-4.489928 0,-2.839918 1.59969,-4.489927 1.599689,-1.657941 4.336778,-1.657941 0.917255,0 1.761126,0.222116 0.843871,0.222117 1.621705,0.658417 v 2.451216 q -0.785173,-0.57909 -1.548321,-0.848804 -0.763158,-0.269713 -1.607029,-0.269713 -1.511638,0 -2.377524,1.047121 -0.865886,1.047121 -0.865886,2.887515 0,1.832462 0.865886,2.879582 0.865886,1.047121 2.377524,1.047121 0.843871,0 1.607029,-0.269712 0.763148,-0.269713 1.548321,-0.848803 z"
         id="text75412" /></g></g></svg>
