<?xml version="1.0" encoding="UTF-8" standalone="no"?>
<!-- Created with Inkscape (http://www.inkscape.org/) -->

<svg
   width="69.973mm"
   height="69.973mm"
   viewBox="-1 -1 69.973279 69.973279"
   version="1.1"
   id="svg1"
   xml:space="preserve"
   inkscape:version="1.3 (1:1.3+202307231459+0e150ed6c4)"
   sodipodi:docname="python_extension.svg"
   xmlns:inkscape="http://www.inkscape.org/namespaces/inkscape"
   xmlns:sodipodi="http://sodipodi.sourceforge.net/DTD/sodipodi-0.dtd"
   xmlns="http://www.w3.org/2000/svg"
   xmlns:svg="http://www.w3.org/2000/svg"><sodipodi:namedview
     id="namedview1"
     pagecolor="#ffffff"
     bordercolor="#666666"
     borderopacity="1.0"
     inkscape:showpageshadow="2"
     inkscape:pageopacity="0.0"
     inkscape:pagecheckerboard="0"
     inkscape:deskcolor="#d1d1d1"
     inkscape:document-units="mm"
     inkscape:zoom="1.4549257"
     inkscape:cx="61.515171"
     inkscape:cy="143.30629"
     inkscape:window-width="1920"
     inkscape:window-height="1011"
     inkscape:window-x="1728"
     inkscape:window-y="0"
     inkscape:window-maximized="1"
     inkscape:current-layer="layer1" /><defs
     id="defs1"><linearGradient
       id="a"
       x1="19.075"
       y1="18.782"
       x2="34.898"
       y2="34.658"
       gradientUnits="userSpaceOnUse"><stop
         stop-color="#387EB8"
         id="stop2" /><stop
         offset="1"
         stop-color="#366994"
         id="stop3" /></linearGradient><linearGradient
       id="b"
       x1="28.809"
       y1="28.882"
       x2="45.803"
       y2="45.163"
       gradientUnits="userSpaceOnUse"><stop
         stop-color="#FFE052"
         id="stop4" /><stop
         offset="1"
         stop-color="#FFC331"
         id="stop5" /></linearGradient></defs><g
     inkscape:label="Layer 1"
     inkscape:groupmode="layer"
     id="layer1"
     transform="translate(-6.3834953,-21.103386)"><g
       style="fill:none;stroke-width:1.58082"
       id="g2"
       transform="matrix(2.0921425,0,0,2.0921425,-26.553153,-11.882761)"><path
         d="m 31.885,16 c -8.124,0 -7.617,3.523 -7.617,3.523 l 0.01,3.65 h 7.752 v 1.095 H 21.197 c 0,0 -5.197,-0.59 -5.197,7.608 0,8.196 4.537,7.906 4.537,7.906 h 2.708 v -3.804 c 0,0 -0.146,-4.537 4.465,-4.537 h 7.688 c 0,0 4.32,0.07 4.32,-4.175 v -7.019 c 0,0 0.656,-4.247 -7.833,-4.247 z m -4.275,2.454 c 0.771,0 1.395,0.624 1.395,1.395 0,0.771 -0.624,1.395 -1.395,1.395 a 1.393,1.393 0 0 1 -1.395,-1.395 c 0,-0.771 0.624,-1.395 1.395,-1.395 z"
         fill="url(#a)"
         id="path1-3"
         style="fill:url(#a);stroke-width:1.58082" /><path
         d="m 32.115,47.833 c 8.124,0 7.617,-3.523 7.617,-3.523 l -0.01,-3.65 H 31.97 v -1.095 h 10.832 c 0,0 5.198,0.59 5.198,-7.607 0,-8.197 -4.537,-7.906 -4.537,-7.906 h -2.708 v 3.803 c 0,0 0.146,4.537 -4.465,4.537 h -7.688 c 0,0 -4.32,-0.07 -4.32,4.175 v 7.019 c 0,0 -0.656,4.247 7.833,4.247 z m 4.275,-2.454 a 1.393,1.393 0 0 1 -1.395,-1.395 c 0,-0.77 0.624,-1.394 1.395,-1.394 0.771,0 1.395,0.623 1.395,1.394 0,0.772 -0.624,1.395 -1.395,1.395 z"
         fill="url(#b)"
         id="path2"
         style="fill:url(#b);stroke-width:1.58082" /></g></g></svg>
